<?xml version="1.0" encoding="UTF-8" standalone="no"?>
<!-- Created with Inkscape (http://www.inkscape.org/) -->

<svg
   width="512"
   height="512"
   viewBox="0 0 512 512"
   version="1.1"
   id="svg1"
   xml:space="preserve"
   sodipodi:docname="chatshare_logo.svg"
   inkscape:version="1.4 (e7c3feb100, 2024-10-09)"
   xmlns:inkscape="http://www.inkscape.org/namespaces/inkscape"
   xmlns:sodipodi="http://sodipodi.sourceforge.net/DTD/sodipodi-0.dtd"
   xmlns="http://www.w3.org/2000/svg"
   xmlns:svg="http://www.w3.org/2000/svg"><sodipodi:namedview
     id="namedview1"
     pagecolor="#ffffff"
     bordercolor="#000000"
     borderopacity="0.25"
     inkscape:showpageshadow="2"
     inkscape:pageopacity="0.0"
     inkscape:pagecheckerboard="0"
     inkscape:deskcolor="#d1d1d1"
     inkscape:zoom="1.4472656"
     inkscape:cx="255.65453"
     inkscape:cy="256.34548"
     inkscape:window-width="1920"
     inkscape:window-height="950"
     inkscape:window-x="0"
     inkscape:window-y="0"
     inkscape:window-maximized="1"
     inkscape:current-layer="layer1" /><defs
     id="defs1" /><g
     id="layer1"><path
       style="display:inline;fill:#70875A;fill-opacity:1"
       d="m 162.10659,403.83889 c -19.3956,-2.77357 -36.33234,-14.02704 -45.86009,-30.47134 -4.58366,-7.9111 -5.49539,-10.53258 -7.9532,-22.86755 -1.64169,-8.23913 -1.7933,-16.3551 -1.7933,-96 0,-85.52694 0.0372,-87.18908 2.19566,-98.16706 2.71431,-13.8049 6.86365,-22.40586 15.18099,-31.4679 9.83608,-10.71677 20.12496,-16.1614 37.07904,-19.62134 7.74159,-1.57988 16.7648,-1.7437 96.04431,-1.7437 93.61899,0 93.65543,0.002 109.26801,5.12644 17.57729,5.76963 31.52097,19.73536 37.29045,37.34939 4.44311,13.56468 4.62035,18.29647 4.25223,113.52417 -0.34292,88.707 -0.37899,90.10981 -2.51116,97.64353 -3.50652,12.38981 -7.63657,19.42577 -16.77415,28.57646 -6.58285,6.59229 -9.87325,9.01425 -16.6168,12.23109 -14.61914,6.9737 -16.18235,7.0669 -116.152,6.92549 -47.99112,-0.0679 -90.13362,-0.53484 -93.64999,-1.03768 z m 44.48695,-26.35716 15.09354,-11.31163 52.40646,-0.43751 c 56.79938,-0.47418 58.45656,-0.62271 70.49559,-6.31808 10.83175,-5.12424 19.46712,-16.69876 23.14118,-31.01754 C 369.33826,322.13033 369.5,315.28534 369.5,253.5 c 0,-75.35152 0.0175,-75.1206 -6.62572,-87.5845 -8.0549,-15.11253 -20.38978,-21.85327 -43.91828,-24.00035 -15.50196,-1.41462 -125.94235,-0.59727 -134.456,0.99509 -8.48475,1.58695 -20.00327,7.49779 -25.68701,13.18153 -5.00719,5.00719 -8.6381,12.00542 -11.57474,22.30923 -1.57528,5.52718 -1.73825,12.56819 -1.73825,75.099 0,63.87976 0.13598,69.47957 1.83249,75.46269 1.00787,3.55448 2.94809,8.36632 4.3116,10.69297 2.78681,4.75532 13.35077,15.01874 19.67912,19.11924 2.29723,1.48851 4.5074,3.16059 4.91148,3.71574 0.40408,0.55515 0.74158,9.19954 0.75,19.20975 l 0.0153,18.2004 7.25,-5.55372 c 3.9875,-3.05454 14.04209,-10.64395 22.34354,-16.86534 z M 298,347.46205 l -15.5,-11.44032 -35,-0.0282 c -45.28547,-0.0365 -50.29871,-0.99649 -60.78178,-11.6389 C 176.68826,314.1722 176,309.65446 176,254 c 0,-43.94184 0.72656,-54.58352 4.1902,-61.37282 3.27515,-6.41983 11.59657,-14.00741 18.34079,-16.72339 L 204.5,173.5 H 257 c 41.72576,0 53.32089,0.28 56.5,1.36436 10.9601,3.73838 21.00305,14.08152 23.64119,24.34784 1.05734,4.11461 1.35881,16.49208 1.35881,55.7878 0,61.28689 0.85048,56.7458 -13.07547,69.81576 L 316,333.66099 v 12.66951 c 0,9.49496 -0.31321,12.65727 -1.25,12.62069 -0.6875,-0.0269 -8.225,-5.19696 -16.75,-11.48914 z"
       id="path2"
       inkscape:label="face" /><path
       d="m 294.73437,222 c -11.15779,0 -15.46259,13.28636 -5.97265,18.43555 10.66523,5.7869 21.46687,-6.62798 13.33789,-15.33008 C 299.69212,222.52824 298.43864,222 294.73437,222 Z"
       style="display:inline;fill:#32372d;fill-opacity:1"
       id="path8"
       inkscape:label="right_eye" /><path
       d="m 220.61914,221.89648 c -4.10215,-0.0168 -8.29374,2.07864 -10.20312,6.64844 -1.82234,4.36148 -0.23417,8.98446 3.96484,11.54492 7.51762,4.58408 16.51264,0.0204 16.58594,-8.41601 0.0542,-6.24085 -5.07346,-9.75574 -10.34766,-9.77735 z"
       style="display:inline;fill:#32372d;fill-opacity:1"
       id="path7"
       inkscape:label="left_eye" /><path
       d="m 233,261.96484 0.0117,2.26758 c 0.0434,9.08352 7.65055,18.93187 15.75976,20.40235 1.47608,0.26766 2.9151,0.71784 3.19727,1 0.0843,0.0843 0.23674,0.15089 0.42383,0.20703 l -0.19336,-0.5625 c 0,0 1.64138,-21.33261 28.41601,-17.70508 0.10517,0.0142 0.18438,0.034 0.28711,0.0488 0.13467,-0.70077 0.24699,-1.40733 0.31446,-2.12305 l 0.2832,-3 -24.25,-0.26758 z"
       style="display:inline;fill:#32372d;fill-opacity:1"
       id="path6"
       inkscape:label="mouth" /><path
       d="m 280.90234,267.62305 c -0.10273,-0.0148 -0.18194,-0.0346 -0.28711,-0.0488 -26.77463,-3.62753 -28.41601,17.70508 -28.41601,17.70508 l 0.19336,0.5625 c 2.40698,0.7222 12.75307,-0.80453 16.74219,-2.59375 5.95293,-2.67004 10.44101,-8.72172 11.76757,-15.625 z"
       style="display:inline;fill:#ffa7a7"
       id="path5"
       inkscape:label="tongue" /></g></svg>
